<svg width="97" height="26" viewBox="0 0 97 26" fill="none" xmlns="http://www.w3.org/2000/svg">
<path fill-rule="evenodd" clip-rule="evenodd" d="M52.0818 10.4996C48.8522 10.5113 47.625 14.1813 47.6421 16.6594C47.658 19.0173 48.8324 22.6795 52.1095 22.6938C55.2862 22.7069 56.6854 18.9637 56.6444 16.2507C56.6021 13.5716 55.1844 10.4917 52.0818 10.4996ZM60.8407 16.4244C60.8407 21.6689 57.7183 25.6719 52.0857 25.6719C46.6516 25.6719 43.5371 21.7943 43.5371 16.6933C43.5371 11.655 46.805 7.48886 52.0064 7.45883C57.5688 7.42619 60.8407 11.1484 60.8407 16.4244Z" fill="#737373"/>
<path fill-rule="evenodd" clip-rule="evenodd" d="M19.1835 5.38302C17.5727 4.04479 14.7002 4.03042 12.8183 4.41035V12.8745C15.6101 13.3419 18.7061 12.9711 19.9188 10.5963C20.7559 8.95382 20.6462 6.59853 19.1835 5.38302ZM19.2152 15.6176C17.3558 16.2364 14.4595 16.414 12.8183 16.0288V25.2999H8.82568V1.48974C11.9269 1.02103 15.2755 0.754686 18.4469 1.29912C22.0811 1.92319 24.5198 4.43908 24.5145 8.19136C24.5092 11.642 22.7 14.4608 19.2152 15.6176Z" fill="#737373"/>
<path fill-rule="evenodd" clip-rule="evenodd" d="M5.35785 7.83362V25.2999H1.36523V7.83362H5.35785Z" fill="#737373"/>
<path fill-rule="evenodd" clip-rule="evenodd" d="M5.342 4.29806C4.8659 4.89602 4.12133 5.21589 3.37677 5.23417C2.58459 5.25245 1.79242 4.92605 1.3269 4.22755C0.770125 3.39328 0.734417 2.16994 1.3626 1.36569C1.82416 0.775561 2.5555 0.47658 3.2961 0.463524C4.0605 0.449162 4.83416 0.737698 5.3301 1.31608C6.03499 2.13469 6.00854 3.46117 5.342 4.29806Z" fill="#737373"/>
<path fill-rule="evenodd" clip-rule="evenodd" d="M92.2633 14.7323C92.2633 13.5625 91.8203 11.9749 90.8178 11.1341C89.502 10.0309 87.427 10.1314 86.1005 11.2033C85.106 12.0062 84.3984 13.4372 84.4209 14.7323H92.2633ZM96.0576 17.5707H84.4209C84.4209 20.4822 86.041 22.3452 89.1912 22.5463C90.8324 22.6508 92.9127 22.2969 94.4865 21.7199L95.1887 24.5217C93.693 25.3442 91.1405 25.6471 89.2295 25.6432C83.9369 25.6353 80.3701 22.4353 80.3701 16.8161C80.3701 13.5952 81.5207 10.6236 83.9038 8.90415C86.525 7.01103 90.8443 6.887 93.3901 8.98509C95.4201 10.6589 96.1766 13.4881 96.0946 16.2533L96.0576 17.5707Z" fill="#737373"/>
<path fill-rule="evenodd" clip-rule="evenodd" d="M37.4904 14.9647C37.4904 12.4554 36.193 10.792 34.0559 10.792C32.8127 10.792 30.1572 11.4174 30.1572 15.7481V25.262H26.2161L26.1646 0H30.1572V10.3142C31.2853 8.46156 33.1315 7.54112 35.3361 7.54112C39.6223 7.54112 41.483 10.4408 41.483 14.8041V25.2998H37.4904V14.9647Z" fill="#737373"/>
<path fill-rule="evenodd" clip-rule="evenodd" d="M74.305 15.1149C74.305 12.6669 73.251 10.7921 70.8401 10.7921C69.7741 10.7921 67.4095 11.437 67.0022 14.7924V25.2998H63.0096C62.9884 19.4913 63.0056 13.6422 62.8535 7.83359H66.4243C66.5142 8.71356 66.575 9.59353 66.6081 10.4735C67.8221 8.47333 69.8786 7.54114 72.1189 7.54114C76.0243 7.54114 78.2963 10.215 78.2963 14.3524V25.2998H74.3037V15.1149H74.305Z" fill="#737373"/>
</svg>
